<svg xmlns="http://www.w3.org/2000/svg" viewBox="0 0 1024 1024" role="img" aria-label="CrewCmd icon">
  <defs>
    <linearGradient id="shell" x1="140" y1="84" x2="884" y2="940" gradientUnits="userSpaceOnUse">
      <stop offset="0" stop-color="#2b2925" />
      <stop offset="0.52" stop-color="#141417" />
      <stop offset="1" stop-color="#09090b" />
    </linearGradient>
    <radialGradient id="coreGlow" cx="50%" cy="48%" r="52%">
      <stop offset="0" stop-color="#f4f1eb" stop-opacity="0.9" />
      <stop offset="0.28" stop-color="#9fbeb8" stop-opacity="0.42" />
      <stop offset="1" stop-color="#111113" stop-opacity="0" />
    </radialGradient>
    <filter id="shadow" x="96" y="96" width="832" height="832" color-interpolation-filters="sRGB" filterUnits="userSpaceOnUse">
      <feDropShadow dx="0" dy="30" stdDeviation="34" flood-color="#000000" flood-opacity="0.32" />
    </filter>
  </defs>

  <rect width="1024" height="1024" rx="224" fill="url(#shell)" />
  <path d="M182 800V264c0-45.3 36.7-82 82-82h496c45.3 0 82 36.7 82 82v496c0 45.3-36.7 82-82 82H264c-45.3 0-82-36.7-82-82Z" fill="none" stroke="#f4f1eb" stroke-opacity="0.14" stroke-width="4" />

  <g filter="url(#shadow)">
    <circle cx="512" cy="512" r="292" fill="url(#coreGlow)" opacity="0.72" />
    <circle cx="512" cy="512" r="142" fill="#101113" stroke="#f4f1eb" stroke-opacity="0.18" stroke-width="8" />
    <path d="M512 185a327 327 0 0 1 260 128" fill="none" stroke="#f4f1eb" stroke-width="54" stroke-linecap="round" />
    <path d="M776 708a327 327 0 0 1-304 128" fill="none" stroke="#f4f1eb" stroke-opacity="0.76" stroke-width="54" stroke-linecap="round" />
    <path d="M245 324a327 327 0 0 0-47 282" fill="none" stroke="#9fbeb8" stroke-width="54" stroke-linecap="round" />
    <path d="M336 735a254 254 0 0 1-44-310" fill="none" stroke="#d7b56d" stroke-width="28" stroke-linecap="round" />
    <path d="M612 265a254 254 0 0 1 152 210" fill="none" stroke="#d7b56d" stroke-width="28" stroke-linecap="round" />
    <circle cx="512" cy="512" r="68" fill="#f4f1eb" />
    <circle cx="512" cy="512" r="27" fill="#d7b56d" />
    <circle cx="356" cy="306" r="30" fill="#9fbeb8" />
  </g>
</svg>
